
<svg width="38" height="34" viewBox="0 0 38 34" fill="none" xmlns="http://www.w3.org/2000/svg">
<path d="M3.51562 33.1562H12.8906C14.8315 33.1562 16.4062 31.5815 16.4062 29.6406V20.2656C16.4062 18.3247 14.8315 16.75 12.8906 16.75H7.03125V12.0625C7.03125 9.47705 9.1333 7.375 11.7188 7.375H12.3047C13.2788 7.375 14.0625 6.59131 14.0625 5.61719V2.10156C14.0625 1.12744 13.2788 0.34375 12.3047 0.34375H11.7188C5.24414 0.34375 0 5.58789 0 12.0625V29.6406C0 31.5815 1.57471 33.1562 3.51562 33.1562ZM24.6094 33.1562H33.9844C35.9253 33.1562 37.5 31.5815 37.5 29.6406V20.2656C37.5 18.3247 35.9253 16.75 33.9844 16.75H28.125V12.0625C28.125 9.47705 30.2271 7.375 32.8125 7.375H33.3984C34.3726 7.375 35.1562 6.59131 35.1562 5.61719V2.10156C35.1562 1.12744 34.3726 0.34375 33.3984 0.34375H32.8125C26.3379 0.34375 21.0938 5.58789 21.0938 12.0625V29.6406C21.0938 31.5815 22.6685 33.1562 24.6094 33.1562Z" fill="#E41A00"/>
</svg>
