<svg width="38" height="34" viewBox="0 0 38 34" fill="none" xmlns="http://www.w3.org/2000/svg">
<path d="M34.4844 0.34375H25.1094C23.1685 0.34375 21.5938 1.91846 21.5938 3.85938V13.2344C21.5938 15.1753 23.1685 16.75 25.1094 16.75H30.9688V21.4375C30.9688 24.0229 28.8667 26.125 26.2812 26.125H25.6953C24.7212 26.125 23.9375 26.9087 23.9375 27.8828V31.3984C23.9375 32.3726 24.7212 33.1562 25.6953 33.1562H26.2812C32.7559 33.1562 38 27.9121 38 21.4375V3.85938C38 1.91846 36.4253 0.34375 34.4844 0.34375ZM13.3906 0.34375H4.01562C2.07471 0.34375 0.5 1.91846 0.5 3.85938V13.2344C0.5 15.1753 2.07471 16.75 4.01562 16.75H9.875V21.4375C9.875 24.0229 7.77295 26.125 5.1875 26.125H4.60156C3.62744 26.125 2.84375 26.9087 2.84375 27.8828V31.3984C2.84375 32.3726 3.62744 33.1562 4.60156 33.1562H5.1875C11.6621 33.1562 16.9062 27.9121 16.9062 21.4375V3.85938C16.9062 1.91846 15.3315 0.34375 13.3906 0.34375Z" fill="#E41A00"/>
</svg>
